<svg width="32" height="32" viewBox="0 0 32 32" fill="none" xmlns="http://www.w3.org/2000/svg">
    <path
        d="M24 0C28.4183 0 32 3.58172 32 8V24C32 28.4183 28.4183 32 24 32H8C3.58172 32 0 28.4183 0 24V8C0 3.58172 3.58172 0 8 0H24Z"
        fill="#6FE3B4" />
    <g clipPath="url(#clip0_1156_1291)">
        <path
            d="M16.4375 11.6251C14.2883 11.6251 12.4699 13.0333 11.852 14.9747C12.7707 14.5099 13.807 14.2501 14.9062 14.2501H17.3125C17.5531 14.2501 17.75 14.447 17.75 14.6876C17.75 14.9282 17.5531 15.1251 17.3125 15.1251H16.875H14.9062C14.4523 15.1251 14.0121 15.1771 13.5883 15.2728C12.8801 15.4341 12.2211 15.7212 11.6359 16.1122C10.0473 17.1704 9 18.9778 9 21.0314V21.4689C9 21.8325 9.29258 22.1251 9.65625 22.1251C10.0199 22.1251 10.3125 21.8325 10.3125 21.4689V21.0314C10.3125 19.6997 10.8785 18.5021 11.7836 17.6626C12.325 19.7271 14.2035 21.2501 16.4375 21.2501H16.4648C20.077 21.231 23 17.6708 23 13.2821C23 12.1173 22.7949 11.0099 22.423 10.0118C22.352 9.82315 22.0758 9.83136 21.9801 10.0091C21.466 10.9716 20.4488 11.6251 19.2812 11.6251H16.4375Z"
            fill="#1A1B23" />
    </g>
    <defs>
        <clipPath id="clip0_1156_1291">
            <path d="M9 9H23V23H9V9Z" fill="white" />
        </clipPath>
    </defs>
</svg>